<?xml version="1.0" encoding="utf-8"?>
<!-- Generator: Adobe Illustrator 16.0.0, SVG Export Plug-In . SVG Version: 6.00 Build 0)  -->
<!DOCTYPE svg PUBLIC "-//W3C//DTD SVG 1.1//EN" "http://www.w3.org/Graphics/SVG/1.1/DTD/svg11.dtd">
<svg version="1.1" id="图层_1" xmlns="http://www.w3.org/2000/svg" xmlns:xlink="http://www.w3.org/1999/xlink" x="0px" y="0px"
	 width="128px" height="128px" viewBox="0 0 128 128" enable-background="new 0 0 128 128" xml:space="preserve">
<path fill="#E6E6E6" d="M118.461,24.938H65.648l-5.498,21.264l-1.974,13.976l10.579,29.503l1.699,35.801h48.006
	c4.438,0,8.039-3.602,8.039-8.04V32.977C126.5,28.539,122.898,24.938,118.461,24.938z"/>
<path fill="#3A5BBC" d="M91.514,103.063l-21.059,22.419l-7.46-22.419l3.043-8.173L91.514,103.063z"/>
<path fill="#808080" d="M116.139,61.113v-5.095h-19.36v-7.134h-5.095v7.134H74.234v5.095h28.295
	c-1.575,3.313-4.305,8.597-8.053,14.169c-3.45-4.309-5.63-7.308-5.656-7.344l-1.497-2.063l-4.124,2.993l1.497,2.061
	c0.115,0.161,2.655,3.653,6.675,8.618c-2.741,3.357-7.767,8.815-10.414,11.465l3.602,3.601c2.285-2.286,7.025-7.376,10.113-11.065
	c4.02,4.774,7.941,9.081,11.685,12.824l1.8,1.802l3.604-3.603l-1.802-1.802c-3.866-3.867-7.938-8.365-12.12-13.38
	c5.404-7.768,8.906-15.125,10.304-18.277H116.139z"/>
<path fill="#518EF8" d="M86.785,88.786l4.729,14.276H9.54c-4.442,0-8.04-3.601-8.04-8.04V10.559c0-4.438,3.598-8.04,8.04-8.04
	h48.686l7.423,22.418l11.134,33.628L86.785,88.786z"/>
<path fill="#FFFFFF" d="M37.95,71.659c-10.441,0-18.936-8.494-18.936-18.937c0-10.441,8.495-18.936,18.936-18.936
	c5.055,0,9.81,1.968,13.39,5.544l-3.601,3.605c-2.618-2.615-6.095-4.056-9.79-4.056c-7.632,0-13.842,6.21-13.842,13.842
	c0,7.633,6.21,13.842,13.842,13.842c6.762,0,12.407-4.875,13.607-11.294H37.951v-5.095h18.937v2.547
	C56.887,63.165,48.393,71.659,37.95,71.659z"/>
</svg>
